<?xml version="1.0" encoding="UTF-8" standalone="no"?>
<!-- Created with Inkscape (http://www.inkscape.org/) -->

<svg
   width="34.106163mm"
   height="6.14152mm"
   viewBox="0 0 34.106163 6.14152"
   version="1.1"
   id="svg377"
   inkscape:version="1.2.2 (b0a8486, 2022-12-01)"
   sodipodi:docname="icon.svg"
   xmlns:inkscape="http://www.inkscape.org/namespaces/inkscape"
   xmlns:sodipodi="http://sodipodi.sourceforge.net/DTD/sodipodi-0.dtd"
   xmlns="http://www.w3.org/2000/svg"
   xmlns:svg="http://www.w3.org/2000/svg">
  <sodipodi:namedview
     id="namedview379"
     pagecolor="#ffffff"
     bordercolor="#000000"
     borderopacity="0.25"
     inkscape:showpageshadow="2"
     inkscape:pageopacity="0.0"
     inkscape:pagecheckerboard="true"
     inkscape:deskcolor="#d1d1d1"
     inkscape:document-units="mm"
     showgrid="false"
     inkscape:zoom="4.9862423"
     inkscape:cx="86.838941"
     inkscape:cy="-35.999053"
     inkscape:window-width="1728"
     inkscape:window-height="927"
     inkscape:window-x="415"
     inkscape:window-y="25"
     inkscape:window-maximized="0"
     inkscape:current-layer="layer1" />
  <defs
     id="defs374">
    <clipPath
       clipPathUnits="userSpaceOnUse"
       id="clipPath182">
      <path
         d="M 0,0 H 595.276 V 841.89 H 0 Z"
         id="path180" />
    </clipPath>
  </defs>
  <g
     inkscape:label="Laag 1"
     inkscape:groupmode="layer"
     id="layer1">
    <g
       id="g176"
       transform="matrix(0.35277777,0,0,-0.35277777,-49.668147,200.82071)"
       style="fill:#ffffff">
      <g
         id="g178"
         clip-path="url(#clipPath182)"
         style="fill:#ffffff">
        <g
           id="g184"
           transform="translate(228.7243,556.1048)"
           style="fill:#ffffff">
          <path
             d="M 0,0 C 0.847,0 2.451,-0.154 3.21,1.137 3.366,1.405 3.478,2.318 3.478,3.254 V 5.617 C 3.478,6.597 3.366,7.489 3.21,7.734 2.451,9.048 0.847,8.893 0,8.893 h -5.927 c -0.87,0 -2.477,0.155 -3.255,-1.159 C -9.339,7.489 -9.406,6.73 -9.406,5.617 V 3.254 c 0,-0.981 0.067,-1.849 0.224,-2.117 C -8.404,-0.154 -6.797,0 -5.927,0 Z m -6.997,-4.255 c -1.628,0 -4.792,0.065 -6.263,1.56 -1.405,1.425 -1.448,4.368 -1.448,5.526 v 3.611 c 0,1.225 -0.09,3.699 1.448,5.192 1.581,1.56 4.054,1.515 6.127,1.515 h 8.514 c 2.097,0 4.57,0.023 6.152,-1.515 1.36,-1.292 1.203,-3.967 1.203,-5.192 V 2.831 C 8.736,1.339 8.939,-1.27 7.533,-2.695 6.061,-4.19 2.496,-4.255 1.271,-4.255 Z"
             style="fill:#ffffff;fill-opacity:1;fill-rule:nonzero;stroke:none"
             id="path186" />
        </g>
        <g
           id="g188"
           transform="translate(162.3416,567.6491)"
           style="fill:#ffffff">
          <path
             d="M 0,0 C -1.715,1.716 -4.39,1.605 -6.352,1.605 H -21.55 v -7.868 h 5.282 v 3.612 h 7.666 c 1.85,0 3.722,0.155 4.457,-1.226 0.424,-0.803 0.446,-5.594 -0.044,-6.396 -0.848,-1.359 -2.207,-1.27 -4.123,-1.27 h -7.956 v 3.553 h -5.282 v -7.809 h 15.111 c 1.758,0 4.923,0.065 6.506,1.626 1.494,1.471 1.471,3.632 1.471,5.28 v 3.456 c 0,2.028 0,3.945 -1.538,5.437 m 49.469,-4.68 c 0.022,1.204 -0.134,3.365 -0.558,4.101 -1.136,1.983 -2.919,2.184 -5.103,2.184 H 35.294 C 33.468,1.605 30.392,1.561 28.788,0 27.161,-1.627 27.272,-3.833 27.272,-6.039 v -1.983 c 0,-2.697 -0.045,-4.592 1.582,-6.218 1.605,-1.582 4.169,-1.559 6.308,-1.559 h 8.713 c 1.47,0 3.477,0 4.792,1.403 1.249,1.293 1.091,4.569 1.091,5.326 h -5.304 c -0.023,-0.78 -0.066,-1.203 -0.244,-1.56 -0.624,-1.002 -1.829,-0.914 -3.343,-0.914 H 36.32 c -1.248,0 -2.518,-0.155 -3.366,1.137 -0.489,0.78 -0.444,5.927 -0.087,6.664 0.601,1.247 1.938,1.091 2.918,1.091 h 5.817 c 1.694,-0.044 2.541,-0.111 2.63,-2.028 z M 3.607,1.605 H 8.89 V -6.93 c 0,-1.092 -0.112,-3.076 0.712,-3.901 0.824,-0.846 2.207,-0.712 2.986,-0.712 h 4.258 c 0.489,0 1.939,-0.134 2.695,0.691 0.714,0.713 0.579,2.206 0.579,3.788 v 8.669 h 5.283 V -8.713 c 0,-1.983 0.178,-3.901 -1.382,-5.482 -1.651,-1.694 -3.789,-1.604 -6.084,-1.604 h -7.755 c -1.849,0 -3.365,-0.158 -5.104,1.626 -1.626,1.694 -1.471,4.68 -1.471,6.017 z"
             style="fill:#ffffff;fill-opacity:1;fill-rule:nonzero;stroke:none"
             id="path190" />
        </g>
      </g>
    </g>
  </g>
</svg>
