<?xml version="1.0" encoding="UTF-8" standalone="no"?>
<!-- Uploaded to: SVG Repo, www.svgrepo.com, Generator: SVG Repo Mixer Tools -->

<svg
   fill="#000000"
   width="800px"
   height="800px"
   viewBox="0 0 52 52"
   version="1.1"
   id="svg8"
   sodipodi:docname="btn-level-2.svg"
   inkscape:version="1.2.2 (b0a8486, 2022-12-01)"
   xmlns:inkscape="http://www.inkscape.org/namespaces/inkscape"
   xmlns:sodipodi="http://sodipodi.sourceforge.net/DTD/sodipodi-0.dtd"
   xmlns="http://www.w3.org/2000/svg"
   xmlns:svg="http://www.w3.org/2000/svg">
  <defs
     id="defs12" />
  <sodipodi:namedview
     id="namedview10"
     pagecolor="#ffffff"
     bordercolor="#000000"
     borderopacity="0.25"
     inkscape:showpageshadow="2"
     inkscape:pageopacity="0.0"
     inkscape:pagecheckerboard="0"
     inkscape:deskcolor="#d1d1d1"
     showgrid="false"
     inkscape:zoom="0.64804083"
     inkscape:cx="324.82521"
     inkscape:cy="347.20034"
     inkscape:window-width="1446"
     inkscape:window-height="928"
     inkscape:window-x="209"
     inkscape:window-y="25"
     inkscape:window-maximized="0"
     inkscape:current-layer="g4" />
  <g
     id="g4">
    <path
       d="m 28.707798,13.197747 c -1.1,0.6 -5.5,2.6 -5.5,2.6 l -4.4,1.9 c -2.2,1.2 -6.9,-0.4 -9.7000001,-1.5 -0.8,-0.4 -1.5,0.6 -1.1,1.4 1.8,4 6.5000001,11.2 15.1000001,6.8 5.4,-2.7 9.9,-4.5 9.9,-4.5 2.2,-1.2 6.9,0.4 9.7,1.5 0.8,0.3 1.5,-0.6 1.1,-1.5 -1.8,-3.9 -6.5,-11.1000007 -15.1,-6.7 z m -3.2,17.7 c -0.9,0.5 -2.4,1.4 -2.4,1.4 -1.7,1.1 -5.2,-0.3 -7.3,-1.3 -0.6,-0.3 -1.1,0.6 -0.8,1.4 1.3,3.6 4.8,10.1 11.3,6.1 2.4,-1.5 2.4,-1.4 2.4,-1.4 1.8,-0.9 5.2,0.3 7.3,1.3 0.6,0.3 1.1,-0.6 0.8,-1.4 -1.3,-3.6 -4.6,-9.8 -11.3,-6.1 z"
       id="path2"
       sodipodi:nodetypes="ccccccccccccccccccc" />
  </g>
  <path
     d="m25.9 25.1"
     id="path6" />
</svg>
